<?xml version="1.0" encoding="UTF-8"?>
<svg width="68px" height="68px" viewBox="0 0 68 68" version="1.1" xmlns="http://www.w3.org/2000/svg" xmlns:xlink="http://www.w3.org/1999/xlink">
    <title>Group 2</title>
    <g id="4.-usuario-" stroke="none" stroke-width="1" fill="none" fill-rule="evenodd">
        <g id="correo-registro" transform="translate(-686.000000, -199.000000)" fill="#FF6F45">
            <g id="Group-2" transform="translate(686.000000, 199.000000)">
                <rect id="Rectangle" opacity="0.0485389346" x="0" y="0" width="68" height="68" rx="10"></rect>
                <g id="file-check-light" transform="translate(19.000000, 14.000000)" fill-rule="nonzero">
                    <path d="M28.9016406,7.65164063 L22.3483594,1.09835938 C21.645102,0.395096763 20.6912786,0 19.6967187,0 L3.75,0 C1.67890625,0 0,1.67890625 0,3.75 L0,36.25 C0,38.3210938 1.67890625,40 3.75,40 L26.25,40 C28.3210937,40 30,38.3210938 30,36.25 L30,10.3032813 C30,9.3087214 29.6049032,8.35489804 28.9016406,7.65164063 L28.9016406,7.65164063 Z M27.1339062,9.41945313 C27.2940409,9.57946665 27.4073727,9.78022185 27.4616406,10 L20,10 L20,2.53835938 C20.219793,2.59259006 20.4205576,2.70592713 20.5805469,2.86609375 L27.1339062,9.41945313 Z M26.25,37.5 L3.75,37.5 C3.05960938,37.5 2.5,36.9403906 2.5,36.25 L2.5,3.75 C2.5,3.05960937 3.05960938,2.5 3.75,2.5 L17.5,2.5 L17.5,10.625 C17.5,11.6605469 18.3394531,12.5 19.375,12.5 L27.5,12.5 L27.5,36.25 C27.5,36.9403906 26.9403906,37.5 26.25,37.5 Z M23.5572656,21.0196094 L13.0267188,31.4657031 C12.6595313,31.83 12.0667188,31.8283594 11.7014844,31.4621094 L6.43914063,26.1846094 C6.07328125,25.8176563 6.07414063,25.2235938 6.44101563,24.8576562 L7.10546875,24.1951562 C7.47242188,23.8292969 8.06648438,23.8301562 8.43234375,24.1970312 L12.373125,28.1491406 L21.5748438,19.02125 C21.9427344,18.6563281 22.5367969,18.6586719 22.9017969,19.0265625 L23.5625781,19.6927344 C23.9275781,20.060625 23.9251563,20.6546875 23.5572656,21.0196094 L23.5572656,21.0196094 Z" id="Shape"></path>
                </g>
            </g>
        </g>
    </g>
</svg>